<?xml version="1.0" standalone="no"?>
<!DOCTYPE svg PUBLIC "-//W3C//DTD SVG 20010904//EN"
 "http://www.w3.org/TR/2001/REC-SVG-20010904/DTD/svg10.dtd">
<svg version="1.0" xmlns="http://www.w3.org/2000/svg"
 width="900.000000pt" height="900.000000pt" viewBox="0 0 900.000000 900.000000"
 preserveAspectRatio="xMidYMid meet">

<g transform="translate(0.000000,900.000000) scale(0.100000,-0.100000)"
fill="#000000" stroke="none">
<path d="M6545 7294 c-267 -48 -456 -145 -623 -318 -159 -166 -257 -355 -315
-611 -19 -82 -21 -131 -24 -560 l-4 -471 -77 -12 c-245 -39 -406 -220 -428
-482 l-7 -80 -1896 -2 -1896 -3 -76 -22 c-312 -89 -543 -316 -631 -620 -19
-66 -23 -102 -23 -233 0 -131 4 -167 23 -233 87 -303 316 -528 632 -620 l75
-22 1898 -3 1897 -2 0 -48 c0 -239 137 -441 347 -511 62 -21 72 -21 1392 -21
1303 0 1330 0 1394 20 123 38 232 132 293 252 54 107 54 92 54 1174 0 636 -4
1021 -10 1055 -32 170 -158 318 -326 381 l-59 23 -1088 3 -1088 3 3 452 c5
520 7 533 100 726 44 91 62 116 137 191 97 96 180 144 317 182 67 18 105 21
249 21 144 0 182 -3 249 -21 136 -38 220 -86 317 -182 75 -74 93 -99 138 -190
75 -155 92 -236 98 -467 l6 -193 198 0 199 0 0 174 c0 405 -109 709 -340 950
-174 181 -395 289 -663 325 -109 15 -346 12 -442 -5z m-1507 -3411 l-3 -588
-1855 0 c-1771 0 -1858 1 -1914 18 -199 61 -346 202 -407 388 -33 102 -34 252
-1 356 26 84 104 206 165 258 88 76 202 129 311 145 28 4 873 8 1879 9 l1827
1 -2 -587z m1862 551 c103 -46 172 -138 193 -257 19 -116 -26 -228 -126 -312
l-44 -36 79 -237 c43 -130 81 -252 84 -269 l6 -33 -331 0 c-299 0 -331 2 -331
16 0 9 36 126 80 261 44 134 80 249 80 254 0 6 -25 33 -55 60 -202 186 -117
511 152 579 57 14 149 3 213 -26z"/>
<path d="M1628 4200 l-3 -140 -135 105 c-74 57 -137 104 -140 104 -10 0 -101
-129 -97 -136 3 -5 75 -62 161 -128 109 -84 152 -123 145 -131 -5 -6 -76 -62
-159 -125 -82 -63 -149 -117 -150 -122 0 -4 23 -36 51 -72 l50 -64 134 104
c73 58 136 105 139 105 3 0 6 -61 6 -135 l0 -135 85 0 84 0 3 136 3 136 75
-57 c41 -32 103 -80 136 -106 l61 -49 52 67 c33 44 47 70 41 78 -5 6 -76 62
-159 125 -83 63 -150 117 -151 120 0 3 72 61 160 129 88 69 160 126 160 129 0
2 -23 33 -51 68 -34 43 -55 62 -63 56 -6 -5 -68 -52 -138 -106 l-128 -97 0
140 0 141 -85 0 -84 0 -3 -140z"/>
<path d="M2954 4327 c-3 -8 -4 -69 -2 -136 2 -66 -1 -121 -6 -121 -4 0 -66 45
-138 101 -71 56 -131 99 -133 97 -28 -28 -94 -125 -92 -132 2 -6 72 -64 155
-129 84 -65 152 -121 152 -126 0 -5 -70 -62 -155 -127 -85 -65 -155 -123 -155
-127 0 -13 90 -127 100 -127 5 0 67 45 137 99 l128 99 5 -131 5 -132 87 -3 87
-3 3 136 3 137 125 -98 c69 -53 130 -101 136 -105 6 -5 30 18 62 61 l52 69
-158 121 c-86 67 -158 125 -160 129 -2 6 161 138 306 246 21 16 -83 149 -107
135 -9 -5 -70 -52 -136 -104 l-120 -94 -5 137 -5 136 -83 3 c-64 2 -84 0 -88
-11z"/>
<path d="M4285 4328 c-3 -7 -6 -70 -7 -139 l-3 -126 -134 104 c-73 58 -137
101 -141 96 -5 -4 -29 -35 -55 -68 -37 -48 -43 -62 -32 -70 146 -109 307 -240
305 -246 -2 -4 -74 -62 -160 -129 l-157 -121 51 -69 52 -69 25 19 c14 10 76
57 136 104 l110 86 3 -135 3 -135 89 0 89 0 3 134 3 135 128 -100 c71 -54 133
-99 137 -99 11 0 100 112 100 125 0 6 -61 57 -136 115 -197 151 -181 137 -166
152 7 7 76 63 154 123 78 61 143 115 145 121 3 7 -64 104 -92 133 -2 2 -65
-45 -139 -103 l-135 -106 -3 138 -3 137 -83 3 c-60 2 -84 -1 -87 -10z"/>
</g>
</svg>
