<?xml version="1.0" standalone="no"?>
<!DOCTYPE svg PUBLIC "-//W3C//DTD SVG 20010904//EN"
 "http://www.w3.org/TR/2001/REC-SVG-20010904/DTD/svg10.dtd">
<svg version="1.0" xmlns="http://www.w3.org/2000/svg"
 width="280.000000pt" height="280.000000pt" viewBox="0 0 280.000000 280.000000"
 preserveAspectRatio="xMidYMid meet">

<g transform="translate(0.000000,280.000000) scale(0.100000,-0.100000)"
fill="#000000" stroke="none">
<path d="M164 2690 c-12 -4 -31 -21 -43 -36 l-21 -27 2 -1014 3 -1015 33 -29
32 -29 668 2 667 3 3 24 c2 12 1 34 -2 47 l-6 24 -430 0 -430 0 0 815 0 815
975 0 975 0 0 -540 0 -540 55 0 55 0 0 707 c0 628 -2 710 -17 740 -31 67 53
63 -1285 62 -667 0 -1223 -4 -1234 -9z m1742 -134 c24 -24 34 -43 34 -66 0
-124 -171 -153 -210 -36 -22 68 29 136 103 136 31 0 46 -7 73 -34z m325 5 c24
-24 29 -38 29 -76 0 -38 -5 -52 -29 -76 -67 -67 -182 -17 -181 78 2 92 116
139 181 74z m321 0 c28 -25 33 -36 33 -76 0 -40 -5 -51 -33 -76 -24 -22 -42
-29 -72 -29 -30 0 -48 7 -72 29 -28 25 -33 36 -33 76 0 40 5 51 33 76 24 22
42 29 72 29 30 0 48 -7 72 -29z m-2017 -498 c0 -112 -1 -477 -3 -813 l-2 -610
-160 0 -160 0 0 815 0 815 163 -2 162 -3 0 -202z"/>
<path d="M320 1995 l0 -55 50 0 50 0 0 55 0 55 -50 0 -50 0 0 -55z"/>
<path d="M320 1780 l0 -50 50 0 50 0 0 50 0 50 -50 0 -50 0 0 -50z"/>
<path d="M320 1560 l0 -50 50 0 50 0 0 50 0 50 -50 0 -50 0 0 -50z"/>
<path d="M320 1345 l0 -55 50 0 50 0 0 55 0 55 -50 0 -50 0 0 -55z"/>
<path d="M320 1130 l0 -50 50 0 50 0 0 50 0 50 -50 0 -50 0 0 -50z"/>
<path d="M320 910 l0 -50 50 0 50 0 0 50 0 50 -50 0 -50 0 0 -50z"/>
<path d="M912 1986 c-67 -29 -127 -57 -133 -63 -6 -6 -9 -25 -7 -42 3 -31 8
-34 132 -87 71 -30 135 -54 143 -54 10 0 13 11 11 41 l-3 42 -88 30 c-48 17
-84 34 -80 38 5 5 44 21 88 36 l80 28 3 43 c2 30 -1 42 -10 42 -7 -1 -68 -25
-136 -54z"/>
<path d="M1530 1997 l0 -43 55 -18 c30 -9 72 -24 93 -33 l37 -16 -90 -32 -90
-33 -3 -45 -3 -46 133 55 c73 30 137 59 141 63 5 5 7 25 5 45 l-3 37 -130 55
c-71 30 -133 54 -137 54 -5 0 -8 -19 -8 -43z"/>
<path d="M1200 1890 l0 -50 100 0 100 0 0 50 0 50 -100 0 -100 0 0 -50z"/>
<path d="M750 1560 l0 -50 160 0 160 0 0 50 0 50 -160 0 -160 0 0 -50z"/>
<path d="M1190 1560 l0 -50 430 0 430 0 0 50 0 50 -430 0 -430 0 0 -50z"/>
<path d="M750 1345 l0 -55 323 2 322 3 3 53 3 52 -325 0 -326 0 0 -55z"/>
<path d="M1510 1345 l0 -55 268 2 267 3 3 53 3 52 -270 0 -271 0 0 -55z"/>
<path d="M2050 1121 l0 -58 -51 -22 c-29 -11 -57 -21 -62 -21 -6 0 -28 17 -49
37 l-38 37 -75 -74 -75 -74 41 -43 42 -42 -23 -55 -22 -56 -59 0 -59 0 0 -105
0 -105 48 0 c59 0 74 -11 97 -73 l17 -49 -41 -42 -41 -42 75 -74 75 -74 42 42
43 41 57 -22 58 -22 0 -62 0 -63 105 0 105 0 0 59 0 60 57 26 57 26 43 -43 43
-42 75 74 75 74 -42 43 -41 42 23 53 c12 29 28 56 34 60 6 4 35 8 64 8 l52 0
0 105 0 105 -64 0 -63 0 -22 57 -22 57 43 43 42 43 -74 75 -74 75 -41 -40
c-22 -22 -45 -40 -50 -40 -5 0 -33 10 -62 22 l-53 22 0 58 0 58 -105 0 -105 0
0 -59z m203 -227 c25 -9 65 -34 88 -56 116 -113 113 -291 -8 -398 -171 -150
-443 -31 -443 193 0 82 17 130 64 184 75 85 189 115 299 77z"/>
</g>
</svg>
